<svg width="60" height="60" viewBox="0 0 60 60" fill="none" xmlns="http://www.w3.org/2000/svg">
<path d="M5 15C5 13.6739 5.52678 12.4021 6.46447 11.4645C7.40215 10.5268 8.67392 10 10 10H50C51.3261 10 52.5979 10.5268 53.5355 11.4645C54.4732 12.4021 55 13.6739 55 15V45C55 46.3261 54.4732 47.5979 53.5355 48.5355C52.5979 49.4732 51.3261 50 50 50H10C8.67392 50 7.40215 49.4732 6.46447 48.5355C5.52678 47.5979 5 46.3261 5 45V15Z" fill="white" stroke="black" stroke-width="2" stroke-linecap="round" stroke-linejoin="round"/>
<path d="M5 20L23.7525 35.0025C25.5257 36.4213 27.729 37.1943 30 37.1943C32.271 37.1943 34.4743 36.4213 36.2475 35.0025L55 20" fill="white"/>
<path d="M5 20L23.7525 35.0025C25.5257 36.4213 27.729 37.1943 30 37.1943C32.271 37.1943 34.4743 36.4213 36.2475 35.0025L55 20" stroke="black" stroke-width="2" stroke-linejoin="round"/>
</svg>
